<svg width="14" height="24" viewBox="0 0 14 24" fill="none" xmlns="http://www.w3.org/2000/svg">
<path d="M6.54667 2.61031C6.63032 2.17994 6.98455 1.85425 7.42042 1.80696L10.0838 1.51795C10.7534 1.44529 11.3018 2.04183 11.1733 2.70292L10.1807 7.80974C10.0753 8.35187 9.55038 8.70594 9.00824 8.60055L6.49592 8.11221C5.95379 8.00683 5.59972 7.48191 5.7051 6.93977L6.54667 2.61031Z" fill="#49B3FF"/>
<path d="M3.47873 8.99414C3.6895 7.90986 4.73933 7.20174 5.82361 7.4125L9.89391 8.20369C10.9782 8.41445 11.6863 9.46429 11.4755 10.5486L9.35429 21.4615C9.14353 22.5457 8.09369 23.2539 7.00942 23.0431L2.93912 22.2519C1.85484 22.0412 1.14672 20.9913 1.35748 19.907L3.47873 8.99414Z" fill="#AC72F7"/>
<path d="M11.0285 13.7354L3.0542 12.1854" stroke="white" stroke-width="1.5" stroke-linecap="round"/>
<path d="M10.2135 17.9279L2.23926 16.3778" stroke="white" stroke-width="1.5" stroke-linecap="round"/>
</svg>
