<svg width="19" height="20" viewBox="0 0 19 20" fill="none" xmlns="http://www.w3.org/2000/svg">
<path d="M1 3C1 1.89543 1.89543 1 3 1H16C17.1046 1 18 1.89543 18 3V12.641C18 13.7456 17.1046 14.641 16 14.641H15.1347C14.3699 14.641 13.75 15.261 13.75 16.0257V16.0257C13.75 17.3375 12.0956 17.9139 11.2805 16.8861L10.1005 15.3983C9.72117 14.9199 9.14406 14.641 8.53352 14.641H3C1.89543 14.641 1 13.7456 1 12.641V3Z" stroke="#909DA1" stroke-width="1.5" stroke-linecap="round"/>
<path d="M5 6L9 6" stroke="#909DA1" stroke-width="1.5" stroke-linecap="round"/>
<path d="M5 10H12" stroke="#909DA1" stroke-width="1.5" stroke-linecap="round"/>
</svg>
