<svg width="22" height="22" viewBox="0 0 22 22" fill="none" xmlns="http://www.w3.org/2000/svg">
<path d="M9.65412 1.76039C10.4517 0.838659 11.8813 0.83866 12.6789 1.76039L13.4516 2.65338C13.8646 3.13061 14.4786 3.38493 15.108 3.33948L16.2859 3.25445C17.5016 3.16667 18.5125 4.17753 18.4247 5.39327L18.3397 6.57112C18.2942 7.20058 18.5485 7.81456 19.0258 8.22752L19.9188 9.00025C20.8405 9.79785 20.8405 11.2274 19.9188 12.025L19.0258 12.7977C18.5485 13.2107 18.2942 13.8247 18.3397 14.4541L18.4247 15.632C18.5125 16.8477 17.5016 17.8586 16.2859 17.7708L15.108 17.6858C14.4786 17.6403 13.8646 17.8947 13.4516 18.3719L12.6789 19.2649C11.8813 20.1866 10.4517 20.1866 9.65412 19.2649L8.88139 18.3719C8.46843 17.8947 7.85445 17.6403 7.22499 17.6858L6.04714 17.7708C4.8314 17.8586 3.82054 16.8477 3.90832 15.632L3.99335 14.4541C4.0388 13.8247 3.78448 13.2107 3.30725 12.7977L2.41426 12.025C1.49253 11.2274 1.49253 9.79785 2.41426 9.00025L3.30725 8.22752C3.78448 7.81456 4.0388 7.20058 3.99335 6.57112L3.90832 5.39327C3.82054 4.17753 4.8314 3.16667 6.04714 3.25445L7.22499 3.33948C7.85445 3.38493 8.46843 3.13061 8.88139 2.65338L9.65412 1.76039Z" fill="#FFB039"/>
<path d="M7.58057 9.16381C7.58057 8.68449 7.71667 8.31465 7.98887 8.05428C8.26699 7.79391 8.625 7.66373 9.06289 7.66373C9.50079 7.66373 9.85584 7.79391 10.128 8.05428C10.4002 8.31465 10.5363 8.68449 10.5363 9.16381C10.5363 9.64312 10.4002 10.013 10.128 10.2733C9.85584 10.5337 9.50079 10.6639 9.06289 10.6639C8.625 10.6639 8.26699 10.5337 7.98887 10.2733C7.71667 10.013 7.58057 9.64312 7.58057 9.16381ZM13.6075 7.76136L10.1902 14.0102H8.7256L12.1429 7.76136H13.6075ZM9.05402 8.55135C8.76998 8.55135 8.62796 8.7555 8.62796 9.16381C8.62796 9.5662 8.76998 9.76739 9.05402 9.76739C9.19012 9.76739 9.29663 9.71709 9.37356 9.61649C9.45049 9.5159 9.48895 9.365 9.48895 9.16381C9.48895 8.7555 9.34397 8.55135 9.05402 8.55135ZM11.8056 12.6078C11.8056 12.1285 11.9417 11.7586 12.214 11.4983C12.4862 11.2379 12.8412 11.1077 13.2791 11.1077C13.717 11.1077 14.072 11.2379 14.3442 11.4983C14.6164 11.7586 14.7525 12.1285 14.7525 12.6078C14.7525 13.0871 14.6164 13.4569 14.3442 13.7173C14.072 13.9777 13.717 14.1079 13.2791 14.1079C12.8412 14.1079 12.4862 13.9777 12.214 13.7173C11.9417 13.4569 11.8056 13.0871 11.8056 12.6078ZM13.2702 11.9953C13.1341 11.9953 13.0276 12.0456 12.9507 12.1462C12.8797 12.2468 12.8442 12.4007 12.8442 12.6078C12.8442 13.0102 12.9862 13.2114 13.2702 13.2114C13.4063 13.2114 13.5128 13.1611 13.5898 13.0605C13.6667 12.9599 13.7052 12.809 13.7052 12.6078C13.7052 12.4066 13.6667 12.2557 13.5898 12.1551C13.5128 12.0486 13.4063 11.9953 13.2702 11.9953Z" fill="white"/>
</svg>
