<svg width="27" height="29" viewBox="0 0 27 29" fill="none" xmlns="http://www.w3.org/2000/svg">
<path d="M18.3009 14.6954C21.3577 18.3383 23.4785 23.6924 21.7617 25.133C20.0448 26.5736 15.1403 23.5553 12.0835 19.9124C9.02674 16.2694 7.773 12.6243 9.48989 11.1837C9.7509 10.9647 10.5793 10.2695 10.5793 10.2695C12.4266 8.71952 15.7088 11.6062 18.3009 14.6954Z" fill="#FF8933"/>
<path d="M16.5309 12.9619L14.1001 15.0016" stroke="white" stroke-width="1.5" stroke-linecap="round"/>
<path d="M15.5109 18.2549L13.0801 20.2946" stroke="white" stroke-width="1.5" stroke-linecap="round"/>
<path d="M20.8683 19.1313L18.4375 21.1709" stroke="white" stroke-width="1.5" stroke-linecap="round"/>
<path d="M11.8109 7.86434C11.5379 9.41263 9.67277 10.3779 9.67277 10.3779C9.67277 10.3779 8.25026 8.83292 8.52326 7.28464C8.79626 5.73636 10.6614 4.77108 10.6614 4.77108C10.6614 4.77108 12.0839 6.31606 11.8109 7.86434Z" fill="#02A894"/>
<path d="M7.41692 5.49248C8.42749 6.69683 7.96805 8.74608 7.96805 8.74608C7.96805 8.74608 5.87015 8.84269 4.85958 7.63834C3.84901 6.43399 4.30845 4.38474 4.30845 4.38474C4.30845 4.38474 6.40635 4.28813 7.41692 5.49248Z" fill="#02A894"/>
<path d="M6.48387 12.3344C8.05603 12.3344 9.33052 10.6652 9.33052 10.6652C9.33052 10.6652 8.05603 8.99603 6.48387 8.99603C4.9117 8.99603 3.63721 10.6652 3.63721 10.6652C3.63721 10.6652 4.9117 12.3344 6.48387 12.3344Z" fill="#02A894"/>
</svg>
