
<svg width="24" height="24" fill="none" xmlns="http://www.w3.org/2000/svg"><path d="M2.888 2.362c-.53.117-.981.556-1.12 1.09-.044.169-.053.532-.053 2.208v2.005H19.32l-.001-1.916c0-1.054-.015-2.016-.032-2.137a1.527 1.527 0 0 0-1.248-1.268c-.128-.021-2.998-.033-7.574-.031-5.984.002-7.407.011-7.577.049m2.589 1.974c.185.082.4.292.49.478.041.084.073.239.082.394.018.322-.052.52-.264.746a1.01 1.01 0 0 1-1.668-.282c-.105-.228-.1-.626.01-.842.261-.51.837-.721 1.35-.494m4.445.02c.358.175.555.499.554.912a.933.933 0 0 1-.295.713c-.706.706-1.915.058-1.712-.918a1.015 1.015 0 0 1 1.453-.707m-8.207 8.989c0 4.533-.005 4.397.179 4.757.104.206.384.489.594.604.377.205-.104.193 8.035.194 7.443 0 7.496 0 7.726-.071.428-.133.788-.478.972-.936l.082-.2v-8.54l-8.794-.009-8.794-.009v4.21m13.345.072c.159.067.364.308.412.484a.739.739 0 0 1-.344.824l-.165.098-4.34.009c-2.966.006-4.397-.002-4.52-.028-.655-.136-.783-1.04-.191-1.353l.154-.081h4.441c3.644 0 4.46.008 4.553.047" fill="#BBBFBF" fill-rule="evenodd"/></svg>