<svg width="24" height="24" viewBox="0 0 24 24" fill="none" xmlns="http://www.w3.org/2000/svg">
<path d="M12 22C17.5228 22 22 17.5228 22 12C22 6.47715 17.5228 2 12 2C6.47715 2 2 6.47715 2 12C2 17.5228 6.47715 22 12 22Z" stroke="#8B9E9E" stroke-width="1.5" stroke-linecap="round" stroke-linejoin="round"/>
<path d="M9.08496 9.00223C9.32006 8.3339 9.78411 7.77034 10.3949 7.41137C11.0057 7.05239 11.7239 6.92117 12.4221 7.04094C13.1204 7.16072 13.7538 7.52376 14.21 8.06576C14.6663 8.60776 14.916 9.29375 14.915 10.0022C14.915 12.0022 11.9189 11.0965 11.9669 13.6858" stroke="#8B9E9E" stroke-width="1.5" stroke-linecap="round" stroke-linejoin="round"/>
<path d="M11.995 17.0022V16.6106" stroke="#8B9E9E" stroke-width="1.5" stroke-linecap="round" stroke-linejoin="round"/>
</svg>
