<svg width="23" height="24" viewBox="0 0 23 24" fill="none" xmlns="http://www.w3.org/2000/svg">
<path d="M22.1465 9.28492V20.8526C22.1465 22.0952 21.1391 23.1026 19.8965 23.1026H18.056C16.8134 23.1026 15.806 22.0952 15.806 20.8526V19.1286C15.806 17.1093 14.169 15.4723 12.1497 15.4723C10.1303 15.4723 8.49334 17.1093 8.49334 19.1286V20.8526C8.49334 22.0952 7.48598 23.1026 6.24334 23.1026H3.89649C2.65384 23.1026 1.64648 22.0952 1.64648 20.8526V9.28492C1.64648 8.2634 2.14152 7.30523 2.97466 6.71415L10.0726 1.67843C11.165 0.903414 12.6279 0.903413 13.7203 1.67843L20.8183 6.71415C21.6514 7.30523 22.1465 8.2634 22.1465 9.28492Z" stroke="#8B9E9E" stroke-width="1.5"/>
</svg>
