
<svg width="25" height="26" fill="none" xmlns="http://www.w3.org/2000/svg"><path d="M11.563 4.002a2.448 2.448 0 0 0-.963.362C10.46 4.45 8.773 5.636 6.85 7 4.447 8.704 3.268 9.565 3.078 9.755a2.134 2.134 0 0 0-.428.584c-.29.59-.278.291-.265 6.528.011 5.31.015 5.625.088 5.841.22.661.727 1.249 1.325 1.536.191.092.459.187.595.211.143.026.828.045 1.619.045 1.502 0 1.523-.003 1.67-.252.06-.102.068-.333.068-2.047 0-1.113.019-2.082.044-2.285.098-.782.404-1.403.977-1.983.43-.436.862-.711 1.366-.871.546-.174.817-.195 2.209-.177 1.269.016 1.309.019 1.667.129.609.186.985.405 1.44.838.469.447.752.908.951 1.552l.113.367.023 2.218.023 2.218.136.136.136.136 1.134.013c.701.008 1.239-.005 1.406-.034.926-.158 1.783-.996 1.979-1.937.092-.438.091-11.148 0-11.583a2.368 2.368 0 0 0-.64-1.183c-.19-.19-1.368-1.05-3.773-2.755a405.278 405.278 0 0 0-3.744-2.637 2.523 2.523 0 0 0-1.634-.361M2.328 8.406c-.052.066-.05.068.016.016.069-.054.091-.089.057-.089-.009 0-.042.033-.073.073m19.047-.057c0 .009.033.042.073.073.066.052.067.05.016-.016-.055-.069-.089-.091-.089-.057m.333.297a.51.51 0 0 0 .119.104c.011 0-.023-.047-.077-.104a.49.49 0 0 0-.119-.104c-.011 0 .024.047.077.104m-19.691.031-.079.094.093-.08c.088-.074.113-.108.08-.108a.491.491 0 0 0-.094.094m2.267 17.268c.03.012.066.011.08-.003.014-.014-.011-.024-.055-.022-.049.002-.058.012-.025.025m15.167 0c.03.012.066.011.079-.003.014-.014-.01-.024-.054-.022-.049.002-.059.012-.025.025m-14.75.042c.03.012.066.01.079-.003.014-.014-.01-.024-.054-.022-.049.002-.059.011-.025.025m14.333 0c.03.012.066.01.08-.003.014-.014-.011-.024-.055-.022-.049.002-.058.011-.025.025" fill="#BBBFBF" fill-rule="evenodd"/></svg>