<svg width="17" height="16" viewBox="0 0 17 16" fill="none" xmlns="http://www.w3.org/2000/svg">
<path d="M3.61438 7.68848V15.2537M3.61438 7.68848H1.60591C1.31011 7.68848 1.07031 7.92827 1.07031 8.22407V14.7181C1.07031 15.014 1.31011 15.2537 1.60591 15.2537H3.61438M3.61438 7.68848L5.73209 5.74577C5.9078 5.58458 6.03957 5.3813 6.11497 5.1551L7.18021 1.95936C7.37662 1.37015 7.88552 0.93989 8.49918 0.844208V0.844208C9.59877 0.672759 10.5523 1.61069 10.3989 2.71295L9.78873 7.09933C9.74541 7.41067 9.98725 7.68848 10.3016 7.68848H13.9815C15.0144 7.68848 15.779 8.64898 15.5474 9.65555L14.4505 14.4227C14.3386 14.9091 13.9057 15.2537 13.4066 15.2537H3.61438" stroke="#909DA2" stroke-width="1.5" stroke-linecap="round"/>
</svg>
