<svg width="18" height="21" viewBox="0 0 18 21" fill="none" xmlns="http://www.w3.org/2000/svg">
<path d="M4.0522 6.20798C4.0522 3.42786 6.30593 1.17413 9.08605 1.17413V1.17413C11.8662 1.17413 14.1199 3.42786 14.1199 6.20798V8.49532C14.1199 10.019 14.5003 11.5186 15.2267 12.8581L16.8604 15.8705C17.0242 16.1724 16.8056 16.5397 16.4621 16.5397H1.71003C1.36652 16.5397 1.1479 16.1724 1.31166 15.8705L2.94535 12.8581C3.67175 11.5186 4.0522 10.019 4.0522 8.49532V6.20798Z" stroke="white" stroke-width="1.5"/>
<path d="M11.6978 16.8756C11.6978 18.4074 10.4561 19.6491 8.92434 19.6491C7.3926 19.6491 6.15088 18.4074 6.15088 16.8756" stroke="white" stroke-width="1.5"/>
</svg>
