
<svg width="30" height="30" fill="#BBBFBF" xmlns="http://www.w3.org/2000/svg"><path d="M11.741 3.375c-4.691.423-8.307 4.216-8.478 8.896-.057 1.579.241 2.975.944 4.417.365.748.76 1.348 1.329 2.019l.123.145.047-.187c.074-.284.27-.816.434-1.172.655-1.426 2.037-2.788 3.462-3.409l.314-.137-.239-.255a4.034 4.034 0 0 1-.936-1.684c-.132-.482-.132-1.482 0-1.941.382-1.324 1.288-2.299 2.53-2.724.398-.136.755-.187 1.292-.185.803.004 1.445.201 2.124.653.597.397 1.154 1.075 1.419 1.727.342.842.378 1.899.093 2.733a4.157 4.157 0 0 1-.902 1.476c-.094.101-.166.19-.158.198.008.008.191.1.407.205a6.624 6.624 0 0 1 1.934 1.37 6.93 6.93 0 0 1 1.78 2.969l.099.343.149-.156c.433-.453.975-1.287 1.365-2.1.612-1.274.888-2.509.888-3.972 0-1.519-.33-2.889-1.023-4.246-.552-1.08-1.485-2.22-2.446-2.987a9.71 9.71 0 0 0-3.584-1.76c-.903-.22-2.093-.314-2.967-.236m.139 5.316c-.959.258-1.688 1.133-1.781 2.139-.135 1.454 1.159 2.747 2.615 2.613a2.458 2.458 0 0 0 2.139-1.799c.083-.317.081-.917-.002-1.242-.205-.792-.917-1.5-1.728-1.716-.288-.076-.95-.074-1.243.005m.037 6.271c-.895.088-1.896.472-2.688 1.033-.465.329-1.163 1.085-1.473 1.597a5.975 5.975 0 0 0-.808 2.585l-.019.323h.368c.337 0 .386.011.573.126.962.592 2.49 1.08 3.773 1.205 1.829.178 3.798-.234 5.367-1.124.358-.203.371-.207.719-.207h.354v-.24a6.263 6.263 0 0 0-.167-1.142 5.72 5.72 0 0 0-1.411-2.492c-.952-.967-2.128-1.534-3.457-1.666-.48-.048-.616-.048-1.131.002" fill-rule="evenodd"/></svg>