<svg width="24" height="25" viewBox="0 0 24 25" fill="none" xmlns="http://www.w3.org/2000/svg">
<path d="M7.32227 11.2805C7.32227 10.4952 7.78314 9.78299 8.49952 9.46123L15.0302 6.52794C16.3499 5.93522 17.8418 6.90061 17.8418 8.34726V16.7706C17.8418 18.1737 16.4313 19.1382 15.1238 18.6291L8.59307 16.0864C7.82687 15.7881 7.32227 15.0501 7.32227 14.2279V11.2805Z" stroke="#8B9E9E" stroke-width="1.5"/>
<path d="M17.8784 10.2517H19.4489C20.5504 10.2517 21.4434 11.1446 21.4434 12.2461V12.6442C21.4434 13.7457 20.5504 14.6386 19.4489 14.6386H17.8784V10.2517Z" stroke="#8B9E9E" stroke-width="1.5"/>
<path d="M1.69141 12.5378C1.69141 11.2952 2.69877 10.2878 3.94141 10.2878H7.37549V15.4531H3.94141C2.69877 15.4531 1.69141 14.4457 1.69141 13.2031V12.5378Z" stroke="#8B9E9E" stroke-width="1.5"/>
<path d="M7.05762 10.4928L7.05762 21.5189" stroke="#8B9E9E" stroke-width="1.5" stroke-linecap="round"/>
</svg>
