<svg width="15" height="15" viewBox="0 0 15 15" fill="none" xmlns="http://www.w3.org/2000/svg">
<path fill-rule="evenodd" clip-rule="evenodd" d="M11.7095 6.63901C11.7095 9.41232 9.46133 11.6605 6.68802 11.6605C3.91471 11.6605 1.6665 9.41232 1.6665 6.63901C1.6665 3.8657 3.91471 1.61749 6.68802 1.61749C9.46133 1.61749 11.7095 3.8657 11.7095 6.63901ZM10.6764 11.7991C9.57383 12.6526 8.19024 13.1605 6.68802 13.1605C3.08629 13.1605 0.166504 10.2407 0.166504 6.63901C0.166504 3.03728 3.08629 0.117493 6.68802 0.117493C10.2898 0.117493 13.2095 3.03728 13.2095 6.63901C13.2095 8.19806 12.6625 9.62934 11.7498 10.7513L13.9484 12.9878C14.2388 13.2832 14.2347 13.758 13.9394 14.0484C13.644 14.3388 13.1691 14.3348 12.8787 14.0394L10.6764 11.7991Z" fill="#202020"/>
</svg>
