<svg width="24" height="25" viewBox="0 0 24 25" fill="none" xmlns="http://www.w3.org/2000/svg">
<path d="M9.59258 4.05017C10.7921 2.43693 13.2079 2.43693 14.4074 4.05017L15.1266 5.01738C15.6202 5.68114 16.3659 6.11168 17.1875 6.20722L18.3847 6.34645C20.3816 6.57867 21.5894 8.67076 20.7921 10.5162L20.3141 11.6227C19.986 12.382 19.986 13.243 20.3141 14.0023L20.7921 15.1088C21.5894 16.9542 20.3816 19.0463 18.3847 19.2785L17.1875 19.4178C16.3659 19.5133 15.6202 19.9439 15.1266 20.6076L14.4074 21.5748C13.2079 23.1881 10.7921 23.1881 9.59258 21.5748L8.8734 20.6076C8.37985 19.9439 7.63414 19.5133 6.81252 19.4178L5.61531 19.2785C3.61842 19.0463 2.41056 16.9542 3.20789 15.1088L3.68593 14.0023C4.01399 13.243 4.01399 12.382 3.68593 11.6227L3.20789 10.5162C2.41056 8.67076 3.61842 6.57867 5.6153 6.34645L6.81252 6.20722C7.63414 6.11168 8.37985 5.68114 8.8734 5.01738L9.59258 4.05017Z" stroke="#8B9E9E" stroke-width="1.5"/>
<circle cx="12.0002" cy="12.8125" r="2.66667" stroke="#8B9E9E" stroke-width="1.5"/>
</svg>
