
<svg width="18" height="25" fill="none" xmlns="http://www.w3.org/2000/svg"><path d="M2.994.53c.022.009.048.008.058-.002.01-.01-.008-.017-.04-.016-.034.002-.042.009-.018.018m11.37 0c.022.009.048.008.058-.002.01-.01-.008-.017-.04-.016-.034.002-.042.009-.018.018m-13.258.752c-.037.048-.036.049.011.012.029-.023.053-.046.053-.053 0-.024-.025-.008-.064.041m-.24.24c-.037.048-.036.049.011.012.05-.039.066-.064.042-.064-.007 0-.03.024-.053.052m1.939-.001c-.585.078-1.208.535-1.48 1.089-.231.468-.214-.222-.214 8.542-.001 4.328.007 7.868.018 7.868.01 0 .752-.513 1.648-1.14l1.63-1.14 2.146 1.5 2.145 1.501 2.146-1.501 2.145-1.5 1.613 1.129c.887.621 1.63 1.135 1.65 1.143.03.012.038-1.568.038-7.835 0-8.776.018-8.084-.218-8.567a2.096 2.096 0 0 0-.894-.894c-.467-.231-.036-.217-6.503-.212a738.8 738.8 0 0 0-5.87.017m9.357 4.276c.168.05.422.3.465.458.106.389-.057.762-.401.919-.115.052-.292.055-3.526.055s-3.411-.003-3.526-.055a.732.732 0 0 1-.433-.679c0-.219.069-.378.228-.532.221-.211-.005-.199 3.713-.201 2.572-.002 3.385.007 3.48.035m.064 5.029a.756.756 0 0 1 .404.906c-.039.141-.215.343-.371.427l-.124.066h-6.87l-.12-.065c-.264-.143-.405-.371-.405-.655a.7.7 0 0 1 .395-.657l.157-.078 3.406.001c3.235 0 3.413.003 3.528.055" fill="#BBBFBF" fill-rule="evenodd"/></svg>