<svg width="25" height="22" viewBox="0 0 25 22" fill="none" xmlns="http://www.w3.org/2000/svg">
<path d="M12.5 3.34643L11.9234 3.82599L12.5 4.51938L13.0766 3.82599L12.5 3.34643ZM12.5 21L12.075 21.6179L12.5 21.9103L12.925 21.6179L12.5 21ZM7.5 1.75C9.27821 1.75 10.8674 2.55629 11.9234 3.82599L13.0766 2.86687C11.748 1.26918 9.74266 0.25 7.5 0.25V1.75ZM1.75 7.5C1.75 4.32436 4.32436 1.75 7.5 1.75V0.25C3.49594 0.25 0.25 3.49594 0.25 7.5H1.75ZM12.5 21C12.925 20.3821 12.9251 20.3821 12.9251 20.3821C12.9251 20.3821 12.925 20.3821 12.9249 20.382C12.9247 20.3818 12.9243 20.3816 12.9237 20.3812C12.9226 20.3804 12.9208 20.3791 12.9183 20.3774C12.9133 20.374 12.9056 20.3686 12.8953 20.3615C12.8747 20.3471 12.8435 20.3254 12.8026 20.2965C12.7207 20.2389 12.5997 20.153 12.4451 20.0413C12.1359 19.8178 11.6927 19.4915 11.1603 19.0821C10.0943 18.2625 8.67616 17.1146 7.26102 15.7972C5.84241 14.4767 4.44603 13.0036 3.40964 11.5351C2.3594 10.047 1.75 8.66234 1.75 7.5H0.25C0.25 9.13259 1.0781 10.8329 2.18411 12.4C3.30397 13.9868 4.78259 15.5394 6.23898 16.8952C7.69884 18.2541 9.15572 19.433 10.246 20.2713C10.7917 20.6908 11.2469 21.0261 11.5666 21.2571C11.7265 21.3726 11.8525 21.4621 11.9391 21.5231C11.9824 21.5535 12.0158 21.5769 12.0387 21.5928C12.0501 21.6008 12.0589 21.6069 12.065 21.6111C12.068 21.6132 12.0704 21.6148 12.0721 21.6159C12.0729 21.6165 12.0736 21.617 12.074 21.6173C12.0743 21.6175 12.0745 21.6176 12.0746 21.6177C12.0748 21.6178 12.075 21.6179 12.5 21ZM23.25 7.5C23.25 8.66234 22.6406 10.047 21.5904 11.5351C20.554 13.0036 19.1576 14.4767 17.739 15.7972C16.3238 17.1146 14.9057 18.2625 13.8397 19.0821C13.3073 19.4915 12.8641 19.8178 12.5549 20.0413C12.4003 20.153 12.2793 20.2389 12.1974 20.2965C12.1565 20.3254 12.1253 20.3471 12.1047 20.3615C12.0944 20.3686 12.0867 20.374 12.0817 20.3774C12.0792 20.3791 12.0774 20.3804 12.0763 20.3812C12.0757 20.3816 12.0753 20.3818 12.0751 20.382C12.075 20.3821 12.0749 20.3821 12.0749 20.3821C12.0749 20.3821 12.075 20.3821 12.5 21C12.925 21.6179 12.9252 21.6178 12.9254 21.6177C12.9255 21.6176 12.9257 21.6175 12.926 21.6173C12.9264 21.617 12.9271 21.6165 12.9279 21.6159C12.9296 21.6148 12.932 21.6132 12.935 21.6111C12.9411 21.6069 12.9499 21.6008 12.9613 21.5928C12.9842 21.5769 13.0176 21.5535 13.0609 21.5231C13.1475 21.4621 13.2735 21.3726 13.4334 21.2571C13.7531 21.0261 14.2083 20.6908 14.754 20.2713C15.8443 19.433 17.3012 18.2541 18.761 16.8952C20.2174 15.5394 21.696 13.9868 22.8159 12.4C23.9219 10.8329 24.75 9.13259 24.75 7.5H23.25ZM17.5 1.75C20.6756 1.75 23.25 4.32436 23.25 7.5H24.75C24.75 3.49594 21.5041 0.25 17.5 0.25V1.75ZM13.0766 3.82599C14.1326 2.55629 15.7218 1.75 17.5 1.75V0.25C15.2573 0.25 13.252 1.26918 11.9234 2.86687L13.0766 3.82599Z" fill="black"/>
</svg>
